<?xml version="1.0" encoding="UTF-8" standalone="no"?><!DOCTYPE svg PUBLIC "-//W3C//DTD SVG 1.1//EN" "http://www.w3.org/Graphics/SVG/1.1/DTD/svg11.dtd"><svg width="100%" height="100%" viewBox="0 0 34 34" version="1.1" xmlns="http://www.w3.org/2000/svg" xmlns:xlink="http://www.w3.org/1999/xlink" xml:space="preserve" xmlns:serif="http://www.serif.com/" style="fill-rule:evenodd;clip-rule:evenodd;stroke-linejoin:round;stroke-miterlimit:2;"><rect id="Artboard5" x="0" y="0" width="33.063" height="33.064" style="fill:none;"/><path d="M23.113,29.95l-0.054,0.026l-0.054,0.026l-0.054,0.026l-0.073,0.035l-0.039,0.018c-0.071,0.033 -0.142,0.066 -0.214,0.099l0,0c-0.603,0.273 -1.225,0.511 -1.864,0.707l-0.032,0.01l-0.051,0.016l-0.051,0.015l-0.05,0.015l-0.061,0.017l-0.047,0.014l-0.046,0.013c-0.264,0.075 -0.531,0.142 -0.801,0.203c-0.128,0.028 -0.257,0.055 -0.386,0.08l-0.072,0.014l-0.046,0.009l-0.052,0.009c-0.228,0.042 -0.458,0.078 -0.69,0.109l-0.047,0.006c-0.063,0.008 -0.125,0.015 -0.188,0.023l-0.09,0.01l-0.015,0.001c-0.338,0.037 -0.679,0.061 -1.023,0.073l-0.044,0.001c-0.093,0.003 -0.187,0.005 -0.28,0.006l-0.102,0.001l-0.055,0l-0.071,0l-0.074,-0.001c-0.821,-0.009 -1.621,-0.101 -2.406,-0.239c-0.07,-0.012 -0.14,-0.024 -0.209,-0.037l0,-10.644l9.341,9.339Zm-11.389,0.721l-0.061,-0.021l-0.064,-0.023l-0.028,-0.009l-0.036,-0.013l-0.037,-0.013l-0.027,-0.01l-0.064,-0.023l-0.058,-0.021c-0.047,-0.017 -0.094,-0.035 -0.14,-0.053l-0.056,-0.021l-0.063,-0.024l-0.063,-0.025l-0.037,-0.015l-0.036,-0.014c-0.148,-0.059 -0.294,-0.12 -0.439,-0.183l-0.024,-0.01l-0.07,-0.032l-0.071,-0.031l-0.07,-0.032l-0.044,-0.02c-0.279,-0.128 -0.554,-0.264 -0.825,-0.408l-0.026,-0.014l-0.067,-0.036l-0.032,-0.017l-0.035,-0.02l-0.025,-0.013l-0.06,-0.034l-0.052,-0.029c-0.122,-0.068 -0.244,-0.138 -0.364,-0.21c-0.029,-0.018 -0.059,-0.036 -0.088,-0.054l-0.036,-0.021l-0.036,-0.023l-0.065,-0.04l-0.065,-0.04l-0.019,-0.012c-0.222,-0.14 -0.44,-0.286 -0.654,-0.437l-0.009,-0.006c-0.129,-0.091 -0.258,-0.185 -0.384,-0.281c-0.164,-0.124 -0.325,-0.251 -0.484,-0.381c-0.114,-0.094 -0.226,-0.189 -0.338,-0.286l-0.058,-0.052l-0.057,-0.05l-0.045,-0.041l-0.054,-0.049l-0.054,-0.049l-0.054,-0.05l-0.054,-0.049l-0.053,-0.05l-0.022,-0.021c-0.028,-0.027 -0.056,-0.054 -0.083,-0.08l-0.051,-0.049l-0.028,-0.028l-0.054,-0.053l-0.019,-0.019c-0.093,-0.093 -0.186,-0.187 -0.277,-0.282l-0.023,-0.024l-0.04,-0.043l-0.016,-0.017c-0.091,-0.096 -0.18,-0.194 -0.268,-0.293c-0.211,-0.238 -0.415,-0.483 -0.61,-0.735l-0.017,-0.021l-0.035,-0.045l-0.046,-0.061l-0.046,-0.061c-0.015,-0.02 -0.03,-0.04 -0.045,-0.061l-0.048,-0.064c-0.104,-0.142 -0.206,-0.286 -0.305,-0.433l7.681,-7.679l0,13.436l-0.067,-0.022Zm18.946,-9.331l-0.027,0.078l-0.025,0.074l-0.026,0.073l-0.027,0.073l-0.026,0.073l-0.027,0.073l-0.028,0.073l-0.012,0.032c-0.378,0.992 -0.853,1.936 -1.416,2.817l-0.021,0.032l-0.041,0.064l-0.042,0.064l-0.013,0.02c-0.09,0.137 -0.182,0.272 -0.277,0.406l-0.011,0.015l-0.044,0.062l-0.044,0.062l-0.045,0.062l-0.026,0.035l-0.019,0.026l-0.023,0.031l-0.023,0.03l-0.02,0.027l-0.025,0.034l-0.018,0.023l-0.029,0.037l-0.014,0.019l-0.043,0.057l-0.044,0.056l-0.04,0.05c-0.062,0.079 -0.125,0.158 -0.189,0.235l-0.038,0.047l-0.045,0.054l-0.046,0.055l-0.046,0.054l-0.046,0.054l-0.047,0.053l-0.046,0.054l-0.031,0.035c-0.603,0.682 -1.269,1.308 -1.991,1.867l-0.047,0.037l-0.057,0.043l-0.057,0.043l-0.023,0.017l-0.034,0.025l-0.027,0.021l-0.039,0.029c-0.151,0.111 -0.304,0.219 -0.46,0.324l-7.692,-7.694l13.46,0l-0.023,0.069Zm-27.549,1.787l-0.029,-0.059c-0.112,-0.229 -0.219,-0.461 -0.32,-0.696l-0.009,-0.019l-0.026,-0.061l-0.012,-0.028c-0.013,-0.031 -0.026,-0.062 -0.039,-0.093c-0.183,-0.44 -0.348,-0.89 -0.491,-1.348c-0.145,-0.464 -0.268,-0.937 -0.368,-1.418c-0.115,-0.56 -0.199,-1.131 -0.248,-1.714c-0.026,-0.32 -0.042,-0.643 -0.046,-0.97l-0.001,-0.043l0,-0.035l0,-0.046c0,-0.022 0,-0.044 0,-0.065l0,-0.049l0,-0.049l0.001,-0.048l0,-0.049l0.001,-0.049l0.001,-0.048l0.001,-0.021c0.004,-0.155 0.01,-0.308 0.02,-0.461c0.004,-0.075 0.01,-0.149 0.015,-0.224l0.003,-0.028l0.005,-0.068l0.006,-0.065l0.002,-0.023l0.003,-0.034c0.017,-0.182 0.038,-0.363 0.061,-0.544l0.009,-0.067l0.012,-0.085l0.006,-0.049l0.009,-0.062l0.009,-0.061l0.013,-0.084l0.006,-0.04l0.008,-0.049l0.013,-0.081l0.009,-0.054l0.011,-0.062l0.009,-0.053l0.014,-0.084l0.009,-0.046l0.008,-0.045c0.005,-0.026 0.009,-0.052 0.014,-0.077l10.666,0l-9.355,9.354Zm26.825,-13.183l0.023,0.047c0.121,0.246 0.235,0.495 0.343,0.748l0.019,0.043c0.061,0.143 0.12,0.287 0.176,0.432l0.013,0.032c0.112,0.288 0.216,0.581 0.311,0.877l0.018,0.056l0.006,0.019c0.032,0.101 0.063,0.202 0.093,0.304l0.015,0.051l0.013,0.048l0.01,0.033l0.014,0.051l0.014,0.051l0.014,0.051l0.014,0.052l0.007,0.025c0.078,0.294 0.147,0.591 0.207,0.891l0.014,0.07l0.011,0.057c0.06,0.314 0.109,0.631 0.148,0.952l0.007,0.055l0.006,0.053l0.005,0.051c0.016,0.141 0.029,0.284 0.041,0.427c0.002,0.022 0.003,0.043 0.005,0.065c0.02,0.27 0.032,0.543 0.037,0.818l0,0.031l0.001,0.066l0.001,0.071c0,0.02 0,0.04 0,0.061l0,0.057l-0.001,0.058l0,0.034c-0.003,0.228 -0.012,0.454 -0.027,0.678l-0.002,0.038c-0.041,0.599 -0.12,1.187 -0.225,1.768l-0.008,0.044l-0.016,0.084l-10.656,0l9.349,-9.349Zm-8.602,-7.549c0.109,0.037 0.217,0.075 0.324,0.115l0.042,0.015l0.056,0.021l0.066,0.025l0.066,0.024l0.065,0.026l0.065,0.025l0.066,0.026l0.05,0.02l0.029,0.012c0.15,0.06 0.299,0.123 0.446,0.188l0.023,0.011l0.071,0.031l0.043,0.019l0.067,0.031l0.066,0.03l0.035,0.016c0.067,0.032 0.135,0.064 0.202,0.097l0.027,0.013l0.048,0.023l0.034,0.017c0.136,0.067 0.27,0.136 0.403,0.207l0.041,0.021l0.009,0.005c0.232,0.124 0.461,0.254 0.685,0.39c0.331,0.2 0.654,0.412 0.967,0.635c0.298,0.212 0.587,0.435 0.868,0.668c0.301,0.249 0.591,0.51 0.87,0.782c0.173,0.169 0.343,0.342 0.508,0.519l0.03,0.032l0.047,0.052l0.047,0.052l0.03,0.033l0.051,0.056l0.019,0.022c0.03,0.034 0.059,0.067 0.089,0.101l0.042,0.049l0.052,0.059c0.215,0.252 0.421,0.511 0.619,0.778c0.12,0.162 0.236,0.325 0.349,0.492l-2.031,2.03l-1.716,1.714l-3.944,3.943l0,-13.45l0.074,0.025Zm-7.369,4.83l-4.081,-4.08c0.013,-0.006 0.026,-0.013 0.039,-0.019l0.079,-0.039c0.1,-0.049 0.202,-0.097 0.303,-0.144l0.029,-0.014l0.073,-0.033l0.04,-0.018c0.58,-0.262 1.179,-0.492 1.793,-0.684l0.048,-0.015c0.373,-0.115 0.751,-0.216 1.135,-0.302c0.045,-0.01 0.089,-0.02 0.134,-0.029l0.077,-0.017l0.053,-0.011l0.07,-0.014l0.046,-0.009l0.044,-0.009l0.052,-0.009l0.053,-0.01l0.053,-0.01l0.053,-0.01l0.065,-0.011l0.042,-0.007c0.018,-0.003 0.036,-0.006 0.053,-0.009l0.054,-0.009l0.054,-0.008l0.029,-0.005c0.282,-0.044 0.567,-0.08 0.855,-0.107l0.043,-0.004c0.394,-0.036 0.793,-0.055 1.197,-0.057l0.072,0l0.054,0l0.06,0l0.038,0.001l0.038,0l0.031,0.001c0.029,0 0.058,0.001 0.087,0.002l0.071,0.002l0.076,0.002l0.075,0.003l0.047,0.002c0.211,0.01 0.419,0.025 0.627,0.044c0.324,0.03 0.645,0.071 0.963,0.12l0.078,0.012c0.148,0.024 0.295,0.049 0.441,0.075c0.025,0.005 0.049,0.009 0.073,0.014l0,10.732l-5.316,-5.317Zm-1.12,1.678l2.889,2.888l-13.374,0l0.025,-0.073l0.025,-0.074l0.025,-0.073l0.026,-0.072l0.021,-0.058l0.025,-0.07l0.026,-0.069l0.026,-0.069l0.026,-0.07l0.027,-0.069l0.011,-0.029l0.016,-0.039l0.012,-0.032l0.015,-0.037l0.014,-0.035l0.013,-0.033l0.016,-0.038l0.012,-0.031l0.017,-0.04l0.011,-0.028l0.019,-0.043l0.01,-0.025l0.019,-0.046l0.01,-0.022l0.021,-0.048l0.03,-0.071l0.031,-0.07l0.031,-0.07l0.035,-0.077l0.031,-0.067l0.03,-0.066l0.032,-0.068l0.033,-0.069l0.033,-0.069l0.034,-0.069l0.034,-0.068l0.034,-0.069l0.025,-0.05l0.034,-0.065l0.01,-0.021l0.023,-0.044l0.012,-0.024l0.022,-0.041l0.014,-0.026l0.02,-0.039l0.015,-0.028l0.02,-0.036l0.017,-0.032l0.017,-0.033l0.019,-0.033l0.017,-0.031l0.02,-0.036l0.037,-0.067l0.037,-0.066l0.038,-0.066l0.038,-0.066l0.038,-0.066l0.039,-0.065l0.039,-0.065l0.039,-0.065l0.008,-0.014c0.06,-0.098 0.121,-0.196 0.183,-0.293l0.01,-0.015l0.041,-0.064l0.041,-0.064l0.042,-0.063l0.042,-0.063l0.042,-0.063l0.043,-0.062l0.043,-0.063l0.043,-0.062l0.044,-0.062l0.044,-0.061l0.044,-0.062l0.044,-0.061l0.045,-0.061l0.045,-0.061l0.045,-0.06l0.046,-0.06l0.01,-0.013c0.19,-0.249 0.388,-0.492 0.593,-0.728l0.017,-0.02l0.05,-0.057l0.05,-0.057l0.05,-0.056l0.051,-0.056l0.023,-0.026c0.678,-0.742 1.431,-1.415 2.252,-2.005c0.08,-0.058 0.161,-0.115 0.243,-0.171l0.041,-0.028l4.764,4.764Z" style="fill:#fcab35;fill-rule:nonzero;"/></svg>